<svg xmlns="http://www.w3.org/2000/svg" viewBox="0 0 326.71 94.65"><defs><style>.a{fill:#8b572a;}.b{fill:#d0860c;}</style></defs><title>draxt</title><path class="a" d="M112.19,153.41a20.66,20.66,0,0,1-7.61-1.39,16.29,16.29,0,0,1-6.21-4.3,20.87,20.87,0,0,1-4.18-7.41,33.29,33.29,0,0,1-1.55-10.75,29.71,29.71,0,0,1,1.72-10.09,23.92,23.92,0,0,1,5.11-8.39,24.5,24.5,0,0,1,8.41-5.73,29.56,29.56,0,0,1,11.62-2.13,25.52,25.52,0,0,1,2.87.17c1,.12,1.87.27,2.72.44V89.35L116.6,88.2V82.57l19.46-1.89h.35l2.77,2.06v63.84h4.72v5.55c-.68.13-1.47.27-2.38.41s-1.87.28-2.89.41-2,.24-3.08.33-2.05.13-3,.13a16.3,16.3,0,0,1-2.6-.18,4.38,4.38,0,0,1-1.83-.69,3.19,3.19,0,0,1-1.1-1.43,6.39,6.39,0,0,1-.37-2.38v-1.8a16.76,16.76,0,0,1-2.69,2.54,19,19,0,0,1-3.41,2.06,19.4,19.4,0,0,1-4,1.39A19,19,0,0,1,112.19,153.41Zm5.38-7.71a10.43,10.43,0,0,0,2.51-.28,11.92,11.92,0,0,0,2.09-.75,9.25,9.25,0,0,0,1.67-1,10,10,0,0,0,1.25-1.13V111.77a4.49,4.49,0,0,0-2.26-1.72,10.3,10.3,0,0,0-8.1.25,9.24,9.24,0,0,0-3.53,3.17,17.73,17.73,0,0,0-2.42,5.82,38.41,38.41,0,0,0-.94,8.9,34.6,34.6,0,0,0,.63,7.92,18,18,0,0,0,2,5.45,8.56,8.56,0,0,0,3.1,3.14A8,8,0,0,0,117.57,145.7Z" transform="translate(-92.64 -80.68)"/><path class="a" d="M150.1,147.74l5.82-.79v-32.9l-5.33-1.76v-7l14.75-2h.22l2.6,1.93v2.56l-.22,7h.22a11.12,11.12,0,0,1,.92-2,18.87,18.87,0,0,1,1.67-2.47,23.07,23.07,0,0,1,2.38-2.53,19.56,19.56,0,0,1,3-2.27,17.38,17.38,0,0,1,3.61-1.63,13.59,13.59,0,0,1,4.14-.61,9.83,9.83,0,0,1,2.05.2,4.38,4.38,0,0,1,1.38.52v15.39a10.86,10.86,0,0,0-3-1.81,11.24,11.24,0,0,0-4-.61,20.05,20.05,0,0,0-6.14.86,12.09,12.09,0,0,0-4,2v27.16l10.39.88v5.58H150.1Z" transform="translate(-92.64 -80.68)"/><path class="a" d="M190.52,138.29a13.06,13.06,0,0,1,2.09-7.43,16.19,16.19,0,0,1,5.9-5.21,31.43,31.43,0,0,1,9.2-3.12,63.93,63.93,0,0,1,12-1V120a13.56,13.56,0,0,0-.35-3.24,4.74,4.74,0,0,0-1.35-2.31,6.15,6.15,0,0,0-2.73-1.36,18.51,18.51,0,0,0-4.51-.45,37.78,37.78,0,0,0-4.78.29c-1.48.19-2.87.43-4.16.72s-2.47.6-3.54.94-2,.66-2.93,1h0l-2.87-5.3a20.71,20.71,0,0,1,3-1.93,38,38,0,0,1,5-2.34,47,47,0,0,1,6.51-2,33.61,33.61,0,0,1,7.42-.81,34.66,34.66,0,0,1,8.85,1,12.78,12.78,0,0,1,5.7,3.06,11.82,11.82,0,0,1,3.06,5.41,30,30,0,0,1,.93,8v25.71h4.8V152c-.56.12-1.29.26-2.2.42s-1.91.32-3,.48-2.16.3-3.28.4-2.15.15-3.12.15a16,16,0,0,1-2.82-.2,3.74,3.74,0,0,1-1.83-.77,3.12,3.12,0,0,1-1-1.56,9.35,9.35,0,0,1-.28-2.53V147a18.63,18.63,0,0,1-5.37,4.22,20.44,20.44,0,0,1-4.06,1.59,18.58,18.58,0,0,1-4.93.62,17.68,17.68,0,0,1-5.87-1,14.26,14.26,0,0,1-4.91-2.87,13.53,13.53,0,0,1-3.35-4.74A16.24,16.24,0,0,1,190.52,138.29Zm15.28-1.65c0,2.76.63,4.85,1.91,6.27a6.38,6.38,0,0,0,5,2.14,8.21,8.21,0,0,0,1.67-.2,11.41,11.41,0,0,0,1.87-.57,12.68,12.68,0,0,0,1.85-.91,8.91,8.91,0,0,0,1.61-1.18v-14.8a24.17,24.17,0,0,0-6.65.79,12.27,12.27,0,0,0-4.29,2.1,7.38,7.38,0,0,0-2.29,2.94A8.81,8.81,0,0,0,205.8,136.64Z" transform="translate(-92.64 -80.68)"/><path class="a" d="M243.24,147.56l5.63-.93L263,128.8l-14.53-18.67-4.62-1.1v-5.77h27.47V109l-5.54,1.1,6.34,8.9,2.29,3.83,2.2-3.79,6.47-8.94-5.81-1.1v-5.77h20.12V109l-5.19,1.1L278.51,127l15.23,19.69,4.89.88v5.81H271.42v-5.81l4.88-.93L270,137l-2.69-3.92-2,3.88-6.52,9.64,6.52,1v5.81H243.24Z" transform="translate(-92.64 -80.68)"/><path class="a" d="M308.06,110.7h-5.41v-5.15c.17-.06.53-.21,1.05-.44l1.66-.74,1.58-.74c.48-.23.77-.38.86-.44a13.44,13.44,0,0,0,1.45-1.83,14.48,14.48,0,0,0,1.37-2.66c.26-.58.54-1.27.83-2.06s.59-1.61.88-2.47.58-1.72.84-2.57.5-1.64.7-2.38H322l.4,14h13.21v7.44H322.5v23.43c0,2.4,0,4.27.11,5.62a9.74,9.74,0,0,0,.53,3,2,2,0,0,0,1.28,1.25,8.22,8.22,0,0,0,2.36.26h0a23.65,23.65,0,0,0,4.53-.43,37.05,37.05,0,0,0,3.7-.85h.05l1.89,5.41a14.8,14.8,0,0,1-3,1.84,31.22,31.22,0,0,1-4.13,1.6A40.12,40.12,0,0,1,325,153a30.82,30.82,0,0,1-5.05.42h-.08q-6,0-8.92-2.63t-2.93-8.26Z" transform="translate(-92.64 -80.68)"/><path class="b" d="M359.42,103.68,372,102.24h.18l1.71,1.44v49.15q0,21.18-13.8,22.45a23.45,23.45,0,0,1-2.93,0,5.46,5.46,0,0,1-2.21-.36l-.36-3.7a8.47,8.47,0,0,0,2.17-.13,16.69,16.69,0,0,0,3-.77c2.59-.78,4.39-2.83,5.41-6.13a45.25,45.25,0,0,0,1.54-13.08l-.09-41.48L359.42,108Zm7-12.22a5.57,5.57,0,0,1-1.22-3.65,6.54,6.54,0,0,1,1.4-4.19,4.73,4.73,0,0,1,3.92-1.76,4.2,4.2,0,0,1,3.43,1.53A5.53,5.53,0,0,1,375.2,87a6.42,6.42,0,0,1-1.39,4.28,4.94,4.94,0,0,1-4,1.67h-.09A4,4,0,0,1,366.41,91.46Z" transform="translate(-92.64 -80.68)"/><path class="b" d="M390.68,146.25q1,1.53,4.15,2.7a19.29,19.29,0,0,0,6.76,1.17q11,0,11-8.11a7.16,7.16,0,0,0-3.06-6q-3.07-2.3-10.46-5.09-7.31-2.62-10.64-6.23T385.09,115a10.31,10.31,0,0,1,2.39-6.76,15.47,15.47,0,0,1,6.4-4.46,23.64,23.64,0,0,1,8.7-1.58,31.09,31.09,0,0,1,7.71.81,58.42,58.42,0,0,1,6.18,2v10.73h-4.42l-1.62-6.59c-.42-.78-1.49-1.44-3.2-2a18.75,18.75,0,0,0-5.64-.81,11.81,11.81,0,0,0-7,1.94,6.05,6.05,0,0,0-2.71,5.18,8,8,0,0,0,1.36,4.78,10.33,10.33,0,0,0,3.33,3,50.11,50.11,0,0,0,5.5,2.57l1.72.72a67.08,67.08,0,0,1,8.29,3.75,16,16,0,0,1,5.23,4.59,11.73,11.73,0,0,1,2.08,7.08,12.44,12.44,0,0,1-5.1,10.51q-5.1,3.83-13.57,3.83a36.37,36.37,0,0,1-8.84-1.26,36,36,0,0,1-7.39-2.53V139.21h4.87Z" transform="translate(-92.64 -80.68)"/><rect class="b" x="271.49" y="0.76" width="11.95" height="11.95" rx="5.98" ry="5.98"/><rect class="b" x="251.85" y="62.16" width="11.95" height="11.95" rx="5.98" ry="5.98"/></svg>